<?xml version="1.0" encoding="UTF-8"?>
<svg version="1.1" xmlns="http://www.w3.org/2000/svg" width="261" height="256">
<path d="M0 0 C86.13 0 172.26 0 261 0 C261 84.48 261 168.96 261 256 C174.87 256 88.74 256 0 256 C0 171.52 0 87.04 0 0 Z " fill="#38484B" transform="translate(0,0)"/>
<path d="M0 0 C86.13 0 172.26 0 261 0 C261 84.48 261 168.96 261 256 C174.87 256 88.74 256 0 256 C0 171.52 0 87.04 0 0 Z M23.65234375 33.796875 C12.97310957 48.03585391 8.85822052 63.40995502 8.83886719 81.02148438 C8.83390228 82.11031921 8.82893738 83.19915405 8.82382202 84.32098389 C8.8092566 87.91191245 8.80240652 91.50279678 8.796875 95.09375 C8.79111741 97.60371908 8.78535976 100.11368815 8.77960205 102.62365723 C8.7704461 107.21439303 8.76414039 111.8051163 8.7611053 116.3958602 C8.75708128 122.44626797 8.74485582 128.49651989 8.71875 134.546875 C8.69106848 141.06482951 8.6783484 147.58265061 8.67642975 154.10066223 C8.6734221 156.57234306 8.66545823 159.04402343 8.65224457 161.51567078 C8.26471736 185.13104587 8.26471736 185.13104587 15.6875 207.25 C16.03707764 207.91273926 16.38665527 208.57547852 16.74682617 209.25830078 C27.48913706 229.13434518 43.32941854 241.28528669 64.52734375 248.08984375 C71.75924125 249.98526795 78.67364584 250.15751586 86.11328125 250.17700195 C87.76116386 250.18685875 87.76116386 250.18685875 89.44233704 250.19691467 C93.0657255 250.21656828 96.68907262 250.22829405 100.3125 250.23828125 C101.55610291 250.24235678 102.79970581 250.2464323 104.08099365 250.25063133 C109.9889991 250.26931783 115.89699159 250.28388916 121.80501938 250.2922433 C128.58262795 250.30198999 135.3599077 250.32825353 142.13740063 250.36874419 C148.04110016 250.40278103 153.9446915 250.4144077 159.84848022 250.41844749 C162.34250108 250.42329072 164.836519 250.43483926 167.33047485 250.45348549 C183.81359268 250.56904127 198.51751831 250.10844091 213.375 242.1875 C214.04072021 241.84275635 214.70644043 241.4980127 215.39233398 241.14282227 C220.73070389 238.30406709 225.51151145 235.06856759 230 231 C230.60972656 230.45859375 231.21945313 229.9171875 231.84765625 229.359375 C245.48782029 216.52862729 253.48006621 197.89123987 254.36715698 179.28125 C254.5600966 172.54182125 254.5305631 165.80391074 254.49609375 159.0625 C254.4962491 156.56778929 254.49774394 154.07307833 254.50050354 151.57836914 C254.50188066 146.37407639 254.48944477 141.17006151 254.46655273 135.96582031 C254.43817089 129.33586136 254.44091505 122.7063633 254.45364285 116.07637024 C254.46063841 110.93213041 254.45276663 105.78799481 254.44038582 100.64376831 C254.43590893 98.20084026 254.43550111 95.75790088 254.43945122 93.31497192 C254.46149716 67.69108827 251.74403392 45.73422473 233.515625 26.359375 C227.86783824 21.07131988 221.63919198 16.93660231 215 13 C214.28981216 12.52856567 213.57962433 12.05713135 212.84791565 11.57141113 C197.97399462 3.36434043 180.1672453 4.28986944 163.75390625 4.40625 C161.16422074 4.40796548 158.5745335 4.40789099 155.98484802 4.40612793 C150.59330993 4.40777014 145.20222334 4.42567176 139.81079102 4.45800781 C133.61152094 4.49501232 127.41271319 4.50366044 121.21334702 4.4967103 C115.1942172 4.49037216 109.17528301 4.50143275 103.1561718 4.52067566 C100.61783546 4.52766599 98.07948542 4.53083505 95.5411396 4.52998352 C91.9914505 4.53179489 88.44239989 4.55328742 84.89282227 4.58007812 C83.86242828 4.57714752 82.8320343 4.57421692 81.77041626 4.57119751 C58.54765785 4.8396274 38.37475088 16.19926836 23.65234375 33.796875 Z " fill="#162F59" transform="translate(0,0)"/>
<path d="M0 0 C3.87154199 1.65533325 7.66538482 3.46738981 11.45898438 5.29296875 C14.62398541 6.79738898 17.81114917 8.24684987 21.00390625 9.69140625 C23.34260318 10.75356444 25.68114557 11.81606298 28.01953125 12.87890625 C29.1384375 13.38583008 30.25734375 13.89275391 31.41015625 14.41503906 C44.853602 20.5942928 44.853602 20.5942928 47.39819336 24.25073242 C48.64662083 27.6581104 48.57475163 30.98783518 48.5703125 34.5703125 C48.57459763 35.33439926 48.57888275 36.09848602 48.58329773 36.88572693 C48.58902832 38.49696869 48.58955066 40.10823633 48.58520508 41.71948242 C48.58203757 44.18648137 48.60554447 46.65228919 48.63085938 49.11914062 C48.63313173 50.6861964 48.63383616 52.25325541 48.6328125 53.8203125 C48.64202225 54.5578627 48.65123199 55.2954129 48.66072083 56.05531311 C48.61471713 61.13360737 48.61471713 61.13360737 46.90307617 63.58959961 C44.51619579 65.10819919 43.03519418 65.11289726 40.26953125 64.62890625 C38.14704569 62.79882962 37.34588548 61.30629524 37.03173828 58.51928711 C36.97393806 55.96610279 37.00850351 53.43163866 37.08203125 50.87890625 C37.10233398 49.54666016 37.10233398 49.54666016 37.12304688 48.1875 C37.15831234 46.00104125 37.21211713 43.81489553 37.26953125 41.62890625 C33.96953125 42.61890625 30.66953125 43.60890625 27.26953125 44.62890625 C27.35074219 45.97984375 27.43195313 47.33078125 27.515625 48.72265625 C28.20839178 64.98444486 28.20839178 64.98444486 24.26953125 69.62890625 C20.67628316 72.72753719 16.65725404 74.87195793 12.26953125 76.62890625 C11.40328125 77.02078125 10.53703125 77.41265625 9.64453125 77.81640625 C-2.69870612 82.03909272 -18.91154305 81.16882054 -30.828125 76.1953125 C-36.27014113 73.25823515 -40.30841631 69.7619849 -43.73046875 64.62890625 C-44.04931641 62.45239258 -44.04931641 62.45239258 -44.14453125 59.9609375 C-44.18320313 59.06826172 -44.221875 58.17558594 -44.26171875 57.25585938 C-44.29265625 56.32708984 -44.32359375 55.39832031 -44.35546875 54.44140625 C-44.39414063 53.50103516 -44.4328125 52.56066406 -44.47265625 51.59179688 C-44.56690062 49.27102915 -44.652509 46.95026877 -44.73046875 44.62890625 C-45.93445313 44.0978125 -47.1384375 43.56671875 -48.37890625 43.01953125 C-49.95472992 42.30665864 -51.53023435 41.59308004 -53.10546875 40.87890625 C-54.2965625 40.35683594 -54.2965625 40.35683594 -55.51171875 39.82421875 C-56.65253906 39.30214844 -56.65253906 39.30214844 -57.81640625 38.76953125 C-58.51813965 38.45532227 -59.21987305 38.14111328 -59.94287109 37.81738281 C-62.14254326 36.3549403 -62.78054203 35.0655069 -63.73046875 32.62890625 C-64.13671875 30.4453125 -64.13671875 30.4453125 -64.23046875 28.19140625 C-64.28203125 27.45019531 -64.33359375 26.70898438 -64.38671875 25.9453125 C-63.22742447 21.85327972 -59.39169868 19.55996681 -55.8085022 17.55171204 C-53.65687913 16.49581194 -51.48654816 15.50185668 -49.296875 14.52734375 C-48.50071274 14.16420074 -47.70455048 13.80105774 -46.88426208 13.4269104 C-44.35771797 12.27710422 -41.82551325 11.14042513 -39.29296875 10.00390625 C-37.59662265 9.23391517 -35.90065524 8.46308921 -34.20507812 7.69140625 C-9.54322086 -3.5075084 -9.54322086 -3.5075084 0 0 Z " fill="#F7D102" transform="translate(138.73046875,89.37109375)"/>
<path d="M0 0 C14.14435462 -0.11755623 28.28863192 -0.20500385 42.43337727 -0.25906086 C49.00320329 -0.28502125 55.57269836 -0.32016918 62.14233398 -0.37719727 C68.49663172 -0.43200337 74.85061354 -0.46152214 81.20512962 -0.47438622 C83.61493075 -0.48353955 86.02471694 -0.50141055 88.43438148 -0.52865028 C108.63163099 -0.74763754 126.32055676 0.73503423 143 13 C143.91394531 13.66386719 144.82789063 14.32773437 145.76953125 15.01171875 C162.67746147 27.91447209 171.00841495 45.21589917 174 66 C174.26546199 69.82276134 174.29399518 73.62868506 174.29052734 77.4597168 C174.29724457 78.54752945 174.30396179 79.6353421 174.31088257 80.75611877 C174.32974107 84.32053306 174.33378072 87.88475781 174.3359375 91.44921875 C174.34237417 93.95107599 174.34910316 96.4529325 174.35610962 98.95478821 C174.36805231 104.18887068 174.37179357 109.4228873 174.37060547 114.65698242 C174.36927454 121.32636836 174.39769261 127.99526336 174.43214989 134.6645689 C174.45451243 139.83024491 174.45844013 144.99581964 174.45738602 150.16153908 C174.45972836 152.6184416 174.4684737 155.07534751 174.48405075 157.53220177 C174.57849804 173.96766061 174.22820165 189.53574769 166.25 204.375 C165.73675171 205.36294556 165.73675171 205.36294556 165.21313477 206.37084961 C162.12155421 212.13516053 158.41626353 217.17083378 154 222 C153.17242187 222.94746094 153.17242187 222.94746094 152.328125 223.9140625 C141.26062628 235.87750159 123.58004802 244.09568764 107.36304474 245.17559814 C99.6003519 245.46644528 91.83323992 245.42043282 84.06640625 245.3984375 C81.54019588 245.40046204 79.01398609 245.40337664 76.48777771 245.40713501 C71.21014906 245.41154121 65.93263524 245.40547485 60.6550293 245.39111328 C54.59113572 245.37480049 48.52754509 245.3800763 42.46365887 245.3965925 C36.58340849 245.41195526 30.70327131 245.41019133 24.8230114 245.4014473 C22.34214166 245.39945962 19.86126408 245.40185363 17.38040352 245.40888596 C-9.17362787 245.46764875 -30.48038345 241.47449257 -50.49609375 222.59765625 C-64.97117548 207.58060578 -71.32512647 187.97034922 -71.2746582 167.50854492 C-71.27976913 166.41751968 -71.28488007 165.32649445 -71.29014587 164.20240784 C-71.30394209 160.62837091 -71.30309251 157.054529 -71.30078125 153.48046875 C-71.30467383 150.97382029 -71.30900966 148.46717248 -71.31376648 145.96052551 C-71.32120743 140.71804665 -71.32095297 135.47563516 -71.31567383 130.2331543 C-71.31030795 124.87468251 -71.31733629 119.5163999 -71.33618164 114.15795898 C-71.35875188 107.6548347 -71.36641813 101.1518677 -71.36250877 94.64870644 C-71.36301899 92.18457808 -71.36819985 89.72044574 -71.37832069 87.25633812 C-71.47245509 61.13317162 -67.9082785 40.62357546 -49.375 20.875 C-38.3537309 10.25880052 -22.9320253 0.75080922 -7.25 0.9375 C-6.26515625 0.94652344 -5.2803125 0.95554687 -4.265625 0.96484375 C-3.14414063 0.98224609 -3.14414063 0.98224609 -2 1 C-2 1.33 -2 1.66 -2 2 C-2.5983667 2.1451001 -3.1967334 2.2902002 -3.81323242 2.43969727 C-24.8593842 7.62796881 -44.09418991 15.11019682 -56.1015625 34.37109375 C-63.73133562 47.32348462 -67.30927312 57.88441635 -67.2746582 72.84692383 C-67.2823246 74.57562462 -67.2823246 74.57562462 -67.29014587 76.33924866 C-67.30398423 80.12856315 -67.30308927 83.91769457 -67.30078125 87.70703125 C-67.30368716 89.6855902 -67.30659849 91.66414922 -67.310188 93.64270705 C-67.32124949 99.85825871 -67.32173998 106.07374992 -67.31567383 112.28930664 C-67.30964039 118.67124012 -67.32193663 125.05295278 -67.3432439 131.43484861 C-67.36094149 136.9409187 -67.36684838 142.44691903 -67.36360615 147.95301646 C-67.36180563 151.2296863 -67.36564698 154.50616519 -67.37832069 157.78281593 C-67.39074264 161.44367804 -67.38385827 165.10403771 -67.37231445 168.76489258 C-67.37995819 169.82969849 -67.38760193 170.89450439 -67.39547729 171.99157715 C-67.28084572 188.5496268 -61.58274271 204.29185289 -51 217 C-50.13761719 217.83144531 -50.13761719 217.83144531 -49.2578125 218.6796875 C-48 220 -48 220 -48 222 C-47.4225 222.26296875 -46.845 222.5259375 -46.25 222.796875 C-43.88154056 224.0633429 -42.0534706 225.5232179 -40 227.25 C-26.93243618 237.56649775 -12.78220313 241.12094486 3.50292969 241.20874023 C4.65507462 241.21852402 5.80721954 241.2283078 6.99427795 241.23838806 C10.80346539 241.26827161 14.61261768 241.28971489 18.421875 241.30859375 C20.38233135 241.31845149 20.38233135 241.31845149 22.38239288 241.32850838 C27.884745 241.35488517 33.38709675 241.37786734 38.88949203 241.39300442 C46.7241679 241.41482257 54.55815099 241.45661756 62.39255023 241.52644199 C67.92750935 241.57406109 73.46228427 241.59798851 78.99744153 241.6052013 C82.28918722 241.61010479 85.5799821 241.6278129 88.87154388 241.6649456 C112.55585508 241.91762292 132.71554633 238.50121987 150.6171875 221.578125 C169.15117239 201.52496102 171.63485027 178.42836087 171.56640625 152.2890625 C171.57165542 149.82538623 171.57793657 147.36171196 171.58518982 144.89804077 C171.59553848 139.75940426 171.59111273 134.62104561 171.57641602 129.48242188 C171.55924207 122.94788862 171.58273736 116.41423594 171.61790562 109.8798008 C171.64002965 104.79890285 171.6384019 99.71821071 171.6301403 94.63727951 C171.6293289 92.23031016 171.63603432 89.82332442 171.65091133 87.41640091 C171.77750434 63.23393307 168.63654703 42.29011763 151.19921875 24.171875 C150.47347656 23.45515625 149.74773437 22.7384375 149 22 C148.38769531 21.36578125 147.77539062 20.7315625 147.14453125 20.078125 C133.9245544 7.33733707 114.96524112 2.89753863 97.19946289 2.79467773 C96.13530151 2.78477814 95.07114014 2.77487854 93.97473145 2.76467896 C90.47406198 2.73321216 86.97337896 2.70836531 83.47265625 2.68359375 C81.03885047 2.66301142 78.60504817 2.64201462 76.17124939 2.62062073 C69.77789122 2.56553218 63.38450151 2.51606477 56.99108887 2.46777344 C50.46212977 2.41746172 43.93321627 2.36182621 37.40429688 2.30664062 C24.60290383 2.19922078 11.8014718 2.09755922 -1 2 C-0.67 1.34 -0.34 0.68 0 0 Z " fill="#515A42" transform="translate(80,5)"/>
<path d="M0 0 C0.70500641 0.32203903 1.41001282 0.64407806 2.13638306 0.97587585 C4.37791662 2.00196836 6.61466204 3.0380714 8.8515625 4.07421875 C10.34606646 4.75909172 11.84085576 5.44334237 13.3359375 6.12695312 C20.10731763 9.23307835 26.82479178 12.40532492 33.4765625 15.76171875 C31.18402468 17.2900773 29.1311832 18.47275136 26.66699219 19.64111328 C25.9090033 20.00133575 25.1510144 20.36155823 24.37005615 20.73269653 C20.90629945 22.36090596 17.44138096 23.98647003 13.97216797 25.60302734 C12.14625844 26.45672042 10.32298531 27.31607583 8.50244141 28.18115234 C5.86951458 29.43199541 3.22888076 30.66501972 0.5859375 31.89453125 C-0.22159973 32.28198517 -1.02913696 32.66943909 -1.86114502 33.06863403 C-7.15277608 35.49896141 -11.60629726 37.03040879 -17.4241333 35.14611816 C-19.53163631 34.29548589 -21.5694699 33.35290591 -23.6171875 32.3671875 C-24.36754272 32.0191658 -25.11789795 31.6711441 -25.89099121 31.31257629 C-28.27450299 30.2038541 -30.64894756 29.07711353 -33.0234375 27.94921875 C-34.61790675 27.20253019 -36.21295437 26.45707538 -37.80859375 25.71289062 C-40.06574584 24.6600411 -42.32195462 23.60562262 -44.5736084 22.5410614 C-48.85359416 20.51916188 -53.16186711 18.60144507 -57.5234375 16.76171875 C-55.45905516 14.51571084 -53.61844393 13.14386391 -50.84985352 11.87646484 C-49.75840782 11.3711171 -49.75840782 11.3711171 -48.64491272 10.8555603 C-47.86361496 10.50232697 -47.0823172 10.14909363 -46.27734375 9.78515625 C-45.46982162 9.41444 -44.6622995 9.04372375 -43.83030701 8.66177368 C-42.12457123 7.88038529 -40.41734176 7.10225049 -38.70874023 6.32714844 C-36.0958316 5.14120945 -33.48805468 3.9445328 -30.88085938 2.74609375 C-29.22164641 1.9876416 -27.56215044 1.22980821 -25.90234375 0.47265625 C-25.12307022 0.11537445 -24.34379669 -0.24190735 -23.54090881 -0.61001587 C-22.81012619 -0.94061005 -22.07934357 -1.27120422 -21.32641602 -1.61181641 C-20.68704605 -1.90255035 -20.04767609 -2.1932843 -19.38893127 -2.49282837 C-12.21575468 -5.35923577 -6.75660565 -3.15008124 0 0 Z " fill="#3B4A4A" transform="translate(142.5234375,102.23828125)"/>
<path d="M0 0 C14.14435462 -0.11755623 28.28863192 -0.20500385 42.43337727 -0.25906086 C49.00320329 -0.28502125 55.57269836 -0.32016918 62.14233398 -0.37719727 C68.49663172 -0.43200337 74.85061354 -0.46152214 81.20512962 -0.47438622 C83.61493075 -0.48353955 86.02471694 -0.50141055 88.43438148 -0.52865028 C108.63163099 -0.74763754 126.32055676 0.73503423 143 13 C143.91394531 13.66386719 144.82789063 14.32773437 145.76953125 15.01171875 C162.67557153 27.91302985 171.01234156 45.21626631 174 66 C174.25651019 69.76986832 174.27432609 73.52124389 174.25878906 77.29882812 C174.26404602 78.90334839 174.26404602 78.90334839 174.26940918 80.5402832 C174.27813456 84.03734024 174.2724134 87.53419131 174.265625 91.03125 C174.26697349 93.47456908 174.26891557 95.91788789 174.27142334 98.36120605 C174.27436144 103.46153336 174.27011632 108.56179029 174.26074219 113.66210938 C174.24929991 120.20709014 174.25594557 126.75190772 174.26788712 133.29688263 C174.27509992 138.33249146 174.27282129 143.36806129 174.26763153 148.40367126 C174.26629594 150.8182731 174.2679396 153.23287847 174.27259064 155.6474762 C174.27765154 159.01052308 174.26995381 162.37330134 174.25878906 165.73632812 C174.26283752 166.73684204 174.26688599 167.73735596 174.27105713 168.76818848 C174.26541748 169.68197266 174.25977783 170.59575684 174.25396729 171.53723145 C174.25283621 172.72841961 174.25283621 172.72841961 174.25168228 173.94367218 C174 176 174 176 172 179 C171.99945523 178.42998858 171.99891047 177.85997717 171.99834919 177.27269268 C171.98328995 163.31269009 171.94047836 149.35299395 171.86790943 135.39316845 C171.8334619 128.64187807 171.80793082 121.89078756 171.80444336 115.1394043 C171.80012869 108.60985556 171.77140487 102.08080809 171.72656822 95.5514164 C171.71369393 93.07470952 171.70924927 90.59794235 171.71384621 88.12120628 C171.7486227 63.66888525 168.85592337 42.51806044 151.19921875 24.171875 C150.47347656 23.45515625 149.74773437 22.7384375 149 22 C148.38769531 21.36578125 147.77539062 20.7315625 147.14453125 20.078125 C133.9245544 7.33733707 114.96524112 2.89753863 97.19946289 2.79467773 C96.13530151 2.78477814 95.07114014 2.77487854 93.97473145 2.76467896 C90.47406198 2.73321216 86.97337896 2.70836531 83.47265625 2.68359375 C81.03885047 2.66301142 78.60504817 2.64201462 76.17124939 2.62062073 C69.77789122 2.56553218 63.38450151 2.51606477 56.99108887 2.46777344 C50.46212977 2.41746172 43.93321627 2.36182621 37.40429688 2.30664062 C24.60290383 2.19922078 11.8014718 2.09755922 -1 2 C-0.67 1.34 -0.34 0.68 0 0 Z " fill="#59603E" transform="translate(80,5)"/>
<path d="M0 0 C3.3796727 1.04232896 6.60400349 2.23183501 9.8046875 3.7265625 C10.47113281 4.0359375 11.13757813 4.3453125 11.82421875 4.6640625 C13.18803436 5.30310753 14.54749632 5.95153001 15.90234375 6.609375 C21.49259853 9.17292151 26.45986505 10.27601907 32.37744141 8.14306641 C34.92346083 7.00612069 37.39830759 5.78064996 39.875 4.5 C41.55837778 3.65322537 43.24320447 2.80932303 44.9296875 1.96875 C45.66429199 1.59169922 46.39889648 1.21464844 47.15576172 0.82617188 C49 0 49 0 51 0 C51.7752545 9.83711825 51.7752545 9.83711825 49 14 C38.87579564 20.74946957 26.80061996 21.1790835 15 20 C9.78660917 18.66460276 5.04687409 17.06019432 1.19921875 13.1875 C-0.33946198 10.38078597 -0.30107692 8.43015378 -0.1875 5.25 C-0.16042969 4.26515625 -0.13335937 3.2803125 -0.10546875 2.265625 C-0.07066406 1.51796875 -0.03585938 0.7703125 0 0 Z " fill="#3F4D4A" transform="translate(105,139)"/>
</svg>
