<?xml version="1.0" encoding="UTF-8"?>
<svg version="1.1" xmlns="http://www.w3.org/2000/svg" width="512" height="512">
<path d="M0 0 C0.64324219 0.350625 1.28648438 0.70125 1.94921875 1.0625 C7.09252599 4.27567242 10.07007011 8.77939764 13 14 C13.34289062 14.59296875 13.68578125 15.1859375 14.0390625 15.796875 C17.50668093 23.12100365 17.13907128 33.27836582 15.2734375 41.01171875 C14.34436871 43.47790543 13.29375631 45.70613602 12 48 C11.4740625 48.96486328 11.4740625 48.96486328 10.9375 49.94921875 C6.22195005 57.49737336 -1.75452117 61.39616458 -10 64 C-10.66 64 -11.32 64 -12 64 C-11.67 85.12 -11.34 106.24 -11 128 C-7.7 123.38 -4.4 118.76 -1 114 C2.29337078 110.27015839 5.59737025 106.6210418 9 103 C10.23613545 101.58940995 11.46599169 100.1732753 12.6875 98.75 C28.16119 80.99864068 47.80454089 66.87916878 68 55 C68.67788574 54.59974609 69.35577148 54.19949219 70.05419922 53.78710938 C96.87074147 38.20551046 127.39405937 28.5264316 158 24 C159.19230225 23.82267334 160.38460449 23.64534668 161.61303711 23.46264648 C173.58811553 21.80772156 185.48875478 21.64144708 197.5625 21.6875 C199.0874408 21.69073273 199.0874408 21.69073273 200.64318848 21.69403076 C215.62309514 21.74499084 230.2605164 22.07679165 245 25 C246.02287109 25.19867676 247.04574219 25.39735352 248.09960938 25.60205078 C293.88810957 34.75837909 336.96622353 54.653368 371 87 C372.41011447 88.23667793 373.826336 89.46644473 375.25 90.6875 C382.67067439 97.17494556 388.82606338 104.3237388 395 112 C397.34934135 114.83259195 399.69958853 117.66438049 402.0546875 120.4921875 C404 123 404 123 407 128 C407.33 106.88 407.66 85.76 408 64 C405.36 63.34 402.72 62.68 400 62 C390.9701223 57.73214735 384.59827436 50.41873351 380.87890625 41.23046875 C378.24166459 31.53714052 379.05949534 20.75964477 384 12 C384.350625 11.35675781 384.70125 10.71351562 385.0625 10.05078125 C388.27567242 4.90747401 392.77939764 1.92992989 398 -1 C398.88945313 -1.51433594 398.88945313 -1.51433594 399.796875 -2.0390625 C407.12100365 -5.50668093 417.27836582 -5.13907128 425.01171875 -3.2734375 C427.47790543 -2.34436871 429.70613602 -1.29375631 432 0 C432.96486328 0.5259375 432.96486328 0.5259375 433.94921875 1.0625 C439.09252599 4.27567242 442.07007011 8.77939764 445 14 C445.51433594 14.88945313 445.51433594 14.88945313 446.0390625 15.796875 C449.50668093 23.12100365 449.13907128 33.27836582 447.2734375 41.01171875 C446.34436871 43.47790543 445.29375631 45.70613602 444 48 C443.649375 48.64324219 443.29875 49.28648438 442.9375 49.94921875 C438.22195005 57.49737336 430.24547883 61.39616458 422 64 C421.34 64 420.68 64 420 64 C419.94503335 75.06732313 419.93389174 86.13377805 419.97665405 97.2011795 C419.99518367 102.34194174 419.99936956 107.48183301 419.96923828 112.62255859 C419.94063937 117.59625403 419.95172478 122.56850572 419.98880005 127.54212952 C419.99617009 129.42684147 419.98992812 131.31166404 419.96896362 133.1962738 C419.83222768 146.60577673 422.24247923 155.46859742 429 167 C430.53782708 170.43228539 431.88950038 173.90843055 433.1875 177.4375 C433.51717773 178.32236084 433.84685547 179.20722168 434.18652344 180.11889648 C438.38735564 191.56626711 441.72777753 203.05557847 444.1875 215 C444.34250977 215.74580322 444.49751953 216.49160645 444.65722656 217.26000977 C447.99344207 234.39718212 448.32761787 251.29904702 448.33451414 268.70572066 C448.33595221 270.75139332 448.340252 272.79704046 448.34550858 274.84270668 C448.36389527 282.01063318 448.37219216 289.17848623 448.37060547 296.34643555 C448.36940186 302.9807539 448.39057643 309.61474816 448.4220928 316.24898452 C448.44838043 321.99133971 448.45896782 327.73358964 448.45769465 333.47600442 C448.45718938 336.88568752 448.46262966 340.29508043 448.48405075 343.70470238 C448.62473821 370.79186979 448.62473821 370.79186979 444 382 C443.72500168 382.71529877 443.45000336 383.43059753 443.16667175 384.16757202 C435.80529385 402.04709521 422.03287254 414.61372761 405 423 C397.55049069 425.97808725 390.36090102 428.11322308 382.30725098 428.14476013 C381.17169266 428.15165863 380.03613434 428.15855713 378.86616516 428.16566467 C377.62964706 428.16827805 376.39312897 428.17089142 375.11914062 428.17358398 C373.10918921 428.18384842 371.0992378 428.19411502 369.0892868 428.20446312 C366.93376989 428.21467602 364.77825522 428.22253649 362.62272644 428.22979546 C358.12625307 428.24528118 353.62984934 428.26922902 349.13342285 428.29469299 C336.34924724 428.36581142 323.56503255 428.42570987 310.78076172 428.47680664 C303.71597317 428.50511812 296.65125474 428.54049941 289.58653975 428.58346039 C285.11795784 428.61020865 280.64945518 428.62812817 276.18080902 428.63949764 C272.74743762 428.65077462 269.31417757 428.67489362 265.88085938 428.69702148 C264.64434128 428.69761063 263.40782318 428.69819977 262.13383484 428.69880676 C260.99827652 428.70852509 259.8627182 428.71824341 258.69274902 428.72825623 C257.21609898 428.73460413 257.21609898 428.73460413 255.70961761 428.74108028 C252.11542938 429.08452587 249.17037214 429.94875866 246.45776367 432.38525391 C246.03213135 432.91038574 245.60649902 433.43551758 245.16796875 433.9765625 C244.68432861 434.56058838 244.20068848 435.14461426 243.70239258 435.74633789 C243.20247803 436.36629639 242.70256348 436.98625488 242.1875 437.625 C241.11398161 438.90922863 240.03846867 440.19179268 238.9609375 441.47265625 C238.1889502 442.39522217 238.1889502 442.39522217 237.40136719 443.33642578 C217.90444877 466.48137389 188.49984919 479.97211017 161 491 C160.29238525 491.29060303 159.58477051 491.58120605 158.85571289 491.88061523 C152.64401015 494.34815757 146.39872806 495.5095266 139.8828125 493.2734375 C134.98199217 490.68630917 131.74390544 487.23171633 130 482 C129.12171088 474.57218342 130.3797692 469.49046159 133.6875 462.875 C138.13901899 453.12405365 140.10128994 440.42933795 137 430 C133.53447885 429.21607549 130.33568238 428.87370433 126.78541565 428.86869812 C125.24042137 428.86268585 125.24042137 428.86268585 123.66421509 428.85655212 C122.54469452 428.85708084 121.42517395 428.85760956 120.27172852 428.8581543 C118.49020134 428.85294266 118.49020134 428.85294266 116.67268372 428.84762573 C114.09345022 428.84027604 111.51421042 428.83492646 108.93496895 428.83133507 C104.84347998 428.82539698 100.75207675 428.80882726 96.66062927 428.78999329 C95.25599389 428.78365609 93.85135846 428.77733046 92.44672298 428.77101612 C91.74329734 428.76785031 91.03987169 428.7646845 90.31513011 428.76142275 C80.79677211 428.71948208 71.27845398 428.6864191 61.76000977 428.67407227 C55.33122462 428.66564777 48.90265233 428.64299389 42.47397369 428.6047166 C39.07979314 428.58509724 35.68592971 428.57250352 32.29168892 428.57755089 C5.15885355 428.59448077 5.15885355 428.59448077 -6 424 C-7.08090157 423.57979836 -7.08090157 423.57979836 -8.18363953 423.15110779 C-26.00211415 415.70451039 -38.65599855 402.12219302 -47 385 C-49.89584048 377.74365983 -52.11432993 370.62371361 -52.14044189 362.77005005 C-52.14615204 361.73623199 -52.15186218 360.70241394 -52.15774536 359.63726807 C-52.15886322 358.51318542 -52.15998108 357.38910278 -52.16113281 356.23095703 C-52.16609772 355.03822174 -52.17106262 353.84548645 -52.17617798 352.61660767 C-52.18827124 349.34686287 -52.19574353 346.0771538 -52.20018864 342.80739069 C-52.20313092 340.75368004 -52.20723835 338.69997483 -52.21169281 336.64626694 C-52.22537384 330.19041698 -52.23503148 323.73457965 -52.2388947 317.27871621 C-52.24334487 309.88600884 -52.26074674 302.49348919 -52.2898953 295.10083878 C-52.31174833 289.35350093 -52.32161173 283.60621487 -52.32293582 277.85883605 C-52.32396933 274.44370085 -52.32955468 271.0287418 -52.34775543 267.61365128 C-52.44179634 246.85653159 -51.38008783 226.50637515 -46.25 206.3125 C-45.99323486 205.27907471 -45.73646973 204.24564941 -45.47192383 203.1809082 C-40.9898312 185.66098102 -35.10832011 166.16248016 -25 151 C-24.78663775 148.19298282 -24.68871095 145.48188479 -24.68115234 142.6730957 C-24.67110672 141.82409698 -24.6610611 140.97509827 -24.65071106 140.10037231 C-24.61980308 137.29218223 -24.60282281 134.4840878 -24.5859375 131.67578125 C-24.56723197 129.72949903 -24.54765903 127.78322497 -24.5272522 125.83695984 C-24.47585998 120.71272588 -24.43627221 115.58846561 -24.39910889 110.46411133 C-24.35911366 105.23577324 -24.3080009 100.00754529 -24.2578125 94.77929688 C-24.16096927 84.51960853 -24.07659137 74.25985811 -24 64 C-25.27141846 63.69296143 -26.54283691 63.38592285 -27.8527832 63.06958008 C-37.41902804 60.75939954 -43.75640603 54.29846991 -48.88671875 46.16015625 C-53.10682219 37.97167485 -53.40815982 27.88382453 -51.27734375 18.98046875 C-50.34388967 16.52023147 -49.29185377 14.29049073 -48 12 C-47.649375 11.35675781 -47.29875 10.71351562 -46.9375 10.05078125 C-43.72432758 4.90747401 -39.22060236 1.92992989 -34 -1 C-33.11054687 -1.51433594 -33.11054687 -1.51433594 -32.203125 -2.0390625 C-22.517475 -6.62474635 -9.06835379 -5.11461884 0 0 Z " fill="#37474F" transform="translate(58,10)"/>
<path d="M0 0 C0.64324219 0.350625 1.28648438 0.70125 1.94921875 1.0625 C7.09252599 4.27567242 10.07007011 8.77939764 13 14 C13.34289062 14.59296875 13.68578125 15.1859375 14.0390625 15.796875 C17.50668093 23.12100365 17.13907128 33.27836582 15.2734375 41.01171875 C14.34436871 43.47790543 13.29375631 45.70613602 12 48 C11.4740625 48.96486328 11.4740625 48.96486328 10.9375 49.94921875 C6.22195005 57.49737336 -1.75452117 61.39616458 -10 64 C-10.66 64 -11.32 64 -12 64 C-11.67 85.12 -11.34 106.24 -11 128 C-7.7 123.38 -4.4 118.76 -1 114 C2.29337078 110.27015839 5.59737025 106.6210418 9 103 C10.23613545 101.58940995 11.46599169 100.1732753 12.6875 98.75 C28.16119 80.99864068 47.80454089 66.87916878 68 55 C68.67788574 54.59974609 69.35577148 54.19949219 70.05419922 53.78710938 C96.87074147 38.20551046 127.39405937 28.5264316 158 24 C159.19230225 23.82267334 160.38460449 23.64534668 161.61303711 23.46264648 C173.58811553 21.80772156 185.48875478 21.64144708 197.5625 21.6875 C199.0874408 21.69073273 199.0874408 21.69073273 200.64318848 21.69403076 C215.62309514 21.74499084 230.2605164 22.07679165 245 25 C246.02287109 25.19867676 247.04574219 25.39735352 248.09960938 25.60205078 C293.88810957 34.75837909 336.96622353 54.653368 371 87 C372.41011447 88.23667793 373.826336 89.46644473 375.25 90.6875 C382.67067439 97.17494556 388.82606338 104.3237388 395 112 C397.34934135 114.83259195 399.69958853 117.66438049 402.0546875 120.4921875 C404 123 404 123 407 128 C407.33 106.88 407.66 85.76 408 64 C405.36 63.34 402.72 62.68 400 62 C390.9701223 57.73214735 384.59827436 50.41873351 380.87890625 41.23046875 C378.24166459 31.53714052 379.05949534 20.75964477 384 12 C384.350625 11.35675781 384.70125 10.71351562 385.0625 10.05078125 C388.27567242 4.90747401 392.77939764 1.92992989 398 -1 C398.88945313 -1.51433594 398.88945313 -1.51433594 399.796875 -2.0390625 C407.12100365 -5.50668093 417.27836582 -5.13907128 425.01171875 -3.2734375 C427.47790543 -2.34436871 429.70613602 -1.29375631 432 0 C432.96486328 0.5259375 432.96486328 0.5259375 433.94921875 1.0625 C439.09252599 4.27567242 442.07007011 8.77939764 445 14 C445.51433594 14.88945313 445.51433594 14.88945313 446.0390625 15.796875 C449.50668093 23.12100365 449.13907128 33.27836582 447.2734375 41.01171875 C446.34436871 43.47790543 445.29375631 45.70613602 444 48 C443.649375 48.64324219 443.29875 49.28648438 442.9375 49.94921875 C438.22195005 57.49737336 430.24547883 61.39616458 422 64 C421.34 64 420.68 64 420 64 C419.94503335 75.06732313 419.93389174 86.13377805 419.97665405 97.2011795 C419.99518367 102.34194174 419.99936956 107.48183301 419.96923828 112.62255859 C419.94063937 117.59625403 419.95172478 122.56850572 419.98880005 127.54212952 C419.99617009 129.42684147 419.98992812 131.31166404 419.96896362 133.1962738 C419.83222768 146.60577673 422.24247923 155.46859742 429 167 C430.53782708 170.43228539 431.88950038 173.90843055 433.1875 177.4375 C433.51717773 178.32236084 433.84685547 179.20722168 434.18652344 180.11889648 C438.38735564 191.56626711 441.72777753 203.05557847 444.1875 215 C444.34250977 215.74580322 444.49751953 216.49160645 444.65722656 217.26000977 C447.99344207 234.39718212 448.32761787 251.29904702 448.33451414 268.70572066 C448.33595221 270.75139332 448.340252 272.79704046 448.34550858 274.84270668 C448.36389527 282.01063318 448.37219216 289.17848623 448.37060547 296.34643555 C448.36940186 302.9807539 448.39057643 309.61474816 448.4220928 316.24898452 C448.44838043 321.99133971 448.45896782 327.73358964 448.45769465 333.47600442 C448.45718938 336.88568752 448.46262966 340.29508043 448.48405075 343.70470238 C448.62473821 370.79186979 448.62473821 370.79186979 444 382 C443.72500168 382.71529877 443.45000336 383.43059753 443.16667175 384.16757202 C435.80529385 402.04709521 422.03287254 414.61372761 405 423 C397.55049069 425.97808725 390.36090102 428.11322308 382.30725098 428.14476013 C381.17169266 428.15165863 380.03613434 428.15855713 378.86616516 428.16566467 C377.62964706 428.16827805 376.39312897 428.17089142 375.11914062 428.17358398 C373.10918921 428.18384842 371.0992378 428.19411502 369.0892868 428.20446312 C366.93376989 428.21467602 364.77825522 428.22253649 362.62272644 428.22979546 C358.12625307 428.24528118 353.62984934 428.26922902 349.13342285 428.29469299 C336.34924724 428.36581142 323.56503255 428.42570987 310.78076172 428.47680664 C303.71597317 428.50511812 296.65125474 428.54049941 289.58653975 428.58346039 C285.11795784 428.61020865 280.64945518 428.62812817 276.18080902 428.63949764 C272.74743762 428.65077462 269.31417757 428.67489362 265.88085938 428.69702148 C264.64434128 428.69761063 263.40782318 428.69819977 262.13383484 428.69880676 C260.99827652 428.70852509 259.8627182 428.71824341 258.69274902 428.72825623 C257.21609898 428.73460413 257.21609898 428.73460413 255.70961761 428.74108028 C252.11542938 429.08452587 249.17037214 429.94875866 246.45776367 432.38525391 C246.03213135 432.91038574 245.60649902 433.43551758 245.16796875 433.9765625 C244.68432861 434.56058838 244.20068848 435.14461426 243.70239258 435.74633789 C243.20247803 436.36629639 242.70256348 436.98625488 242.1875 437.625 C241.11398161 438.90922863 240.03846867 440.19179268 238.9609375 441.47265625 C238.1889502 442.39522217 238.1889502 442.39522217 237.40136719 443.33642578 C217.90444877 466.48137389 188.49984919 479.97211017 161 491 C160.29238525 491.29060303 159.58477051 491.58120605 158.85571289 491.88061523 C152.64401015 494.34815757 146.39872806 495.5095266 139.8828125 493.2734375 C134.98199217 490.68630917 131.74390544 487.23171633 130 482 C129.12171088 474.57218342 130.3797692 469.49046159 133.6875 462.875 C138.13901899 453.12405365 140.10128994 440.42933795 137 430 C133.53447885 429.21607549 130.33568238 428.87370433 126.78541565 428.86869812 C125.24042137 428.86268585 125.24042137 428.86268585 123.66421509 428.85655212 C122.54469452 428.85708084 121.42517395 428.85760956 120.27172852 428.8581543 C118.49020134 428.85294266 118.49020134 428.85294266 116.67268372 428.84762573 C114.09345022 428.84027604 111.51421042 428.83492646 108.93496895 428.83133507 C104.84347998 428.82539698 100.75207675 428.80882726 96.66062927 428.78999329 C95.25599389 428.78365609 93.85135846 428.77733046 92.44672298 428.77101612 C91.74329734 428.76785031 91.03987169 428.7646845 90.31513011 428.76142275 C80.79677211 428.71948208 71.27845398 428.6864191 61.76000977 428.67407227 C55.33122462 428.66564777 48.90265233 428.64299389 42.47397369 428.6047166 C39.07979314 428.58509724 35.68592971 428.57250352 32.29168892 428.57755089 C5.15885355 428.59448077 5.15885355 428.59448077 -6 424 C-7.08090157 423.57979836 -7.08090157 423.57979836 -8.18363953 423.15110779 C-26.00211415 415.70451039 -38.65599855 402.12219302 -47 385 C-49.89584048 377.74365983 -52.11432993 370.62371361 -52.14044189 362.77005005 C-52.14615204 361.73623199 -52.15186218 360.70241394 -52.15774536 359.63726807 C-52.15886322 358.51318542 -52.15998108 357.38910278 -52.16113281 356.23095703 C-52.16609772 355.03822174 -52.17106262 353.84548645 -52.17617798 352.61660767 C-52.18827124 349.34686287 -52.19574353 346.0771538 -52.20018864 342.80739069 C-52.20313092 340.75368004 -52.20723835 338.69997483 -52.21169281 336.64626694 C-52.22537384 330.19041698 -52.23503148 323.73457965 -52.2388947 317.27871621 C-52.24334487 309.88600884 -52.26074674 302.49348919 -52.2898953 295.10083878 C-52.31174833 289.35350093 -52.32161173 283.60621487 -52.32293582 277.85883605 C-52.32396933 274.44370085 -52.32955468 271.0287418 -52.34775543 267.61365128 C-52.44179634 246.85653159 -51.38008783 226.50637515 -46.25 206.3125 C-45.99323486 205.27907471 -45.73646973 204.24564941 -45.47192383 203.1809082 C-40.9898312 185.66098102 -35.10832011 166.16248016 -25 151 C-24.78663775 148.19298282 -24.68871095 145.48188479 -24.68115234 142.6730957 C-24.67110672 141.82409698 -24.6610611 140.97509827 -24.65071106 140.10037231 C-24.61980308 137.29218223 -24.60282281 134.4840878 -24.5859375 131.67578125 C-24.56723197 129.72949903 -24.54765903 127.78322497 -24.5272522 125.83695984 C-24.47585998 120.71272588 -24.43627221 115.58846561 -24.39910889 110.46411133 C-24.35911366 105.23577324 -24.3080009 100.00754529 -24.2578125 94.77929688 C-24.16096927 84.51960853 -24.07659137 74.25985811 -24 64 C-25.27141846 63.69296143 -26.54283691 63.38592285 -27.8527832 63.06958008 C-37.41902804 60.75939954 -43.75640603 54.29846991 -48.88671875 46.16015625 C-53.10682219 37.97167485 -53.40815982 27.88382453 -51.27734375 18.98046875 C-50.34388967 16.52023147 -49.29185377 14.29049073 -48 12 C-47.649375 11.35675781 -47.29875 10.71351562 -46.9375 10.05078125 C-43.72432758 4.90747401 -39.22060236 1.92992989 -34 -1 C-33.11054687 -1.51433594 -33.11054687 -1.51433594 -32.203125 -2.0390625 C-22.517475 -6.62474635 -9.06835379 -5.11461884 0 0 Z M161 75 C159.72842041 75.26538574 159.72842041 75.26538574 158.43115234 75.53613281 C104.51106553 86.95728894 57.46465314 117.77230386 27.1875 164.0625 C22.52693309 171.40607317 18.64700647 179.112595 15 187 C14.69320312 187.65274902 14.38640625 188.30549805 14.0703125 188.97802734 C10.04513861 197.65838365 7.09876476 206.49265206 4.6875 215.75 C4.44499512 216.65234375 4.20249023 217.5546875 3.95263672 218.484375 C-0.32624895 235.90231244 -0.31468906 254.1257971 -0.30078125 271.953125 C-0.30468244 274.07631512 -0.30901995 276.19950447 -0.31376648 278.32269287 C-0.32114846 282.72605957 -0.32099271 287.12934593 -0.31567383 291.53271484 C-0.30983255 297.1576641 -0.32696054 302.78228904 -0.3500185 308.4071846 C-0.36476924 312.77219542 -0.36562668 317.1371278 -0.36250877 321.50215912 C-0.36301943 323.57687787 -0.36820871 325.6516013 -0.37832069 327.72629547 C-0.3907198 330.62015482 -0.38387703 333.51337671 -0.37231445 336.40722656 C-0.38378006 337.66973488 -0.38378006 337.66973488 -0.39547729 338.95774841 C-0.30029593 349.78895086 3.91297092 358.76254243 11.1875 366.6875 C17.74507991 372.97184741 25.75046062 376.12042531 34.7301054 376.13142776 C35.90642361 376.13526891 37.08274183 376.13911005 38.29470605 376.1430676 C39.58816518 376.14220112 40.88162431 376.14133463 42.21427917 376.14044189 C43.60137572 376.14302575 44.98847153 376.14603896 46.3755663 376.1494453 C50.1914875 376.15751629 54.00738988 376.15930492 57.8233186 376.16004276 C61.93730176 376.16189316 66.05127516 376.16944045 70.16525269 376.17617798 C79.16326569 376.1897628 88.16127424 376.19578633 97.1592958 376.20018864 C102.77766435 376.20295096 108.39603118 376.20718831 114.01439857 376.21169281 C129.56968039 376.22388595 145.12496082 376.234185 160.68024731 376.2375679 C161.67592776 376.23778747 162.67160821 376.23800703 163.69746079 376.23823325 C164.69552673 376.23845153 165.69359267 376.23866981 166.72190303 376.2388947 C168.7443709 376.23933817 170.76683877 376.23978473 172.78930664 376.24023438 C174.29412821 376.24056652 174.29412821 376.24056652 175.82935021 376.24090537 C192.08311732 376.24485294 208.33683958 376.26230551 224.59058937 376.2855939 C241.27765437 376.30931015 257.96469687 376.32176989 274.651779 376.32293582 C284.02109901 376.32385246 293.39036061 376.32960186 302.75966454 376.34775543 C310.73838451 376.36316014 318.71702801 376.36827471 326.69576003 376.36001733 C330.76572097 376.35611206 334.83552793 376.35703433 338.90546989 376.37107468 C342.63447338 376.38382106 346.36320729 376.38260973 350.09221045 376.37048396 C352.07367672 376.36760475 354.05514767 376.3794572 356.03657693 376.39190602 C368.29682202 376.32397595 377.59365457 373.1599823 386.6875 364.8125 C394.44915233 356.69562331 396.15097022 347.64081022 396.14526367 336.86132812 C396.14862228 335.9482338 396.1519809 335.03513947 396.15544128 334.09437561 C396.16494141 331.07331986 396.16689502 328.05231977 396.16796875 325.03125 C396.17118583 322.9139402 396.17455024 320.79663063 396.17805481 318.67932129 C396.18404647 314.23070767 396.18589506 309.78211346 396.18530273 305.33349609 C396.18520199 299.69140681 396.19876212 294.04944588 396.21607494 288.40738678 C396.22732295 284.0247137 396.22921794 279.64207018 396.22869301 275.25938416 C396.22985751 273.18342147 396.23419093 271.10745763 396.24202538 269.0315094 C396.30270746 251.26607811 396.0012444 233.20121391 391.375 215.9375 C391.11630127 214.94419678 390.85760254 213.95089355 390.59106445 212.92749023 C377.7654712 165.60078683 345.53729693 126.31179032 304 101 C303.41476562 100.63551758 302.82953125 100.27103516 302.2265625 99.89550781 C278.44004661 85.18474225 251.45797261 77.18376153 224 73 C222.96903198 72.84096191 222.96903198 72.84096191 221.91723633 72.67871094 C214.22185584 71.65790449 206.43681264 71.75621183 198.6875 71.75 C197.5515892 71.74898788 197.5515892 71.74898788 196.39273071 71.74795532 C184.34974689 71.76496856 172.80192061 72.4432881 161 75 Z " fill="#CED7DB" transform="translate(58,10)"/>
<path d="M0 0 C0.64324219 0.350625 1.28648437 0.70125 1.94921875 1.0625 C7.09252599 4.27567242 10.07007011 8.77939764 13 14 C13.34289062 14.59296875 13.68578125 15.1859375 14.0390625 15.796875 C17.50668093 23.12100365 17.13907128 33.27836582 15.2734375 41.01171875 C14.34436871 43.47790543 13.29375631 45.70613602 12 48 C11.4740625 48.96486328 11.4740625 48.96486328 10.9375 49.94921875 C6.22195005 57.49737336 -1.75452117 61.39616458 -10 64 C-10.66 64 -11.32 64 -12 64 C-12 92.38 -12 120.76 -12 150 C-21.34738292 138.31577135 -25.22863843 130.93259374 -24.78125 115.85546875 C-24.76628488 114.349503 -24.75491811 112.84349766 -24.74694824 111.33747864 C-24.71674687 107.4188936 -24.6384789 103.50277152 -24.54931641 99.58514404 C-24.46671926 95.56947127 -24.43078122 91.55339106 -24.390625 87.53710938 C-24.30543769 79.69029669 -24.16934073 71.84549647 -24 64 C-25.27141846 63.69296143 -26.54283691 63.38592285 -27.8527832 63.06958008 C-37.41902804 60.75939954 -43.75640603 54.29846991 -48.88671875 46.16015625 C-53.10682219 37.97167485 -53.40815982 27.88382453 -51.27734375 18.98046875 C-50.34388967 16.52023147 -49.29185377 14.29049073 -48 12 C-47.649375 11.35675781 -47.29875 10.71351562 -46.9375 10.05078125 C-43.72432758 4.90747401 -39.22060236 1.92992989 -34 -1 C-33.11054688 -1.51433594 -33.11054688 -1.51433594 -32.203125 -2.0390625 C-22.517475 -6.62474635 -9.06835379 -5.11461884 0 0 Z " fill="#36464E" transform="translate(490,10)"/>
<path d="M0 0 C0.64324219 0.350625 1.28648438 0.70125 1.94921875 1.0625 C7.09252599 4.27567242 10.07007011 8.77939764 13 14 C13.34289062 14.59296875 13.68578125 15.1859375 14.0390625 15.796875 C17.50668093 23.12100365 17.13907128 33.27836582 15.2734375 41.01171875 C14.34436871 43.47790543 13.29375631 45.70613602 12 48 C11.4740625 48.96486328 11.4740625 48.96486328 10.9375 49.94921875 C6.22195005 57.49737336 -1.75452117 61.39616458 -10 64 C-10.66 64 -11.32 64 -12 64 C-11.97779388 64.81637939 -11.95558777 65.63275879 -11.93270874 66.47387695 C-11.73076407 74.23880126 -11.57931369 82.00242009 -11.48187828 89.76930237 C-11.43009569 93.76076955 -11.3601004 97.75003457 -11.24560547 101.74023438 C-10.33483509 134.31192667 -10.33483509 134.31192667 -19.63916016 145.53515625 C-21.07817109 147.03756105 -22.5289506 148.5289506 -24 150 C-24 121.62 -24 93.24 -24 64 C-26.64 63.34 -29.28 62.68 -32 62 C-41.0298777 57.73214735 -47.40172564 50.41873351 -51.12109375 41.23046875 C-53.75833541 31.53714052 -52.94050466 20.75964477 -48 12 C-47.649375 11.35675781 -47.29875 10.71351562 -46.9375 10.05078125 C-43.72432758 4.90747401 -39.22060236 1.92992989 -34 -1 C-33.11054687 -1.51433594 -33.11054687 -1.51433594 -32.203125 -2.0390625 C-22.517475 -6.62474635 -9.06835379 -5.11461884 0 0 Z " fill="#36464E" transform="translate(58,10)"/>
<path d="M0 0 C1.48454681 -0.01279495 1.48454681 -0.01279495 2.99908447 -0.02584839 C4.61845413 -0.02448883 4.61845413 -0.02448883 6.27053833 -0.02310181 C7.41240601 -0.02981903 8.55427368 -0.03653625 9.73074341 -0.04345703 C13.51114231 -0.06247838 17.29136407 -0.06636331 21.07180786 -0.06851196 C23.69730706 -0.07493686 26.32280554 -0.08166499 28.94830322 -0.08868408 C34.4544897 -0.10147056 39.96062808 -0.10444942 45.46682739 -0.10317993 C51.82440601 -0.10197871 58.18164503 -0.12307778 64.53913772 -0.15466726 C70.66233519 -0.18400474 76.7853701 -0.19115514 82.90863419 -0.18996048 C85.51056429 -0.19232192 88.11249686 -0.20117579 90.71438217 -0.21662521 C94.35317964 -0.23620863 97.99110193 -0.23047628 101.62991333 -0.21841431 C102.70544464 -0.22965332 103.78097595 -0.24089233 104.88909912 -0.25247192 C110.92745811 -0.20157898 114.49349576 0.20995777 119.07962036 4.26742554 C121.7928244 8.32934437 121.81805587 12.55581492 121.07962036 17.26742554 C117.85413447 27.65555626 113.16400002 38.74480035 105.07962036 46.26742554 C102.04359312 44.88434646 99.74007232 43.23555298 97.20462036 41.07992554 C82.35713113 29.38264372 63.81266978 24.67088482 45.07962036 26.26742554 C30.15513025 28.71074665 15.60455163 35.27471955 5.07962036 46.26742554 C-1.31048083 43.66664037 -4.57766352 37.1040012 -7.41256714 31.11508179 C-8.63734298 28.18359169 -9.79800365 25.2394099 -10.92037964 22.26742554 C-11.47145386 20.99125366 -11.47145386 20.99125366 -12.03366089 19.68930054 C-13.43932388 15.85004478 -13.50200449 12.29624161 -12.92037964 8.26742554 C-9.81872681 2.1748932 -6.75018133 0.02634762 0 0 Z " fill="#FDFEFE" transform="translate(201.92037963867188,273.7325744628906)"/>
<path d="M0 0 C3.33361937 2.60403937 5.77513004 5.44185296 8.3203125 8.8125 C-4.10854373 22.04321793 -20.31031156 29.43884322 -38.31640625 31.16015625 C-57.85381241 31.66335932 -75.10854023 24.65316678 -89.6796875 11.8125 C-90.9921875 9.5625 -90.9921875 9.5625 -91.6796875 7.8125 C-67.12263034 -17.68905936 -28.87368167 -19.30658118 0 0 Z " fill="#05A9F3" transform="translate(297.6796875,312.1875)"/>
<path d="M0 0 C6.65949441 4.54918024 11.26072064 11.1492119 13.80859375 18.78125 C14.9399435 27.96360027 13.35593398 36.26734715 8.3359375 44.0703125 C2.45401522 51.49571794 -5.42376587 54.93663137 -14.6640625 56.08984375 C-23.52425282 56.5308487 -30.58065013 53.66224616 -37.36328125 47.953125 C-43.48893095 41.51333942 -46.34170616 34.2356717 -46.81640625 25.40625 C-46.50032524 16.47169352 -42.88418028 8.90846201 -36.37890625 2.78125 C-25.31991013 -5.78528298 -12.38573754 -6.88832462 0 0 Z " fill="#03A7F2" transform="translate(372.19140625,190.21875)"/>
<path d="M0 0 C6.65949441 4.54918024 11.26072064 11.1492119 13.80859375 18.78125 C14.9399435 27.96360027 13.35593398 36.26734715 8.3359375 44.0703125 C2.45401522 51.49571794 -5.42376587 54.93663137 -14.6640625 56.08984375 C-23.52425282 56.5308487 -30.58065013 53.66224616 -37.36328125 47.953125 C-43.48893095 41.51333942 -46.34170616 34.2356717 -46.81640625 25.40625 C-46.50032524 16.47169352 -42.88418028 8.90846201 -36.37890625 2.78125 C-25.31991013 -5.78528298 -12.38573754 -6.88832462 0 0 Z " fill="#03A7F2" transform="translate(172.19140625,190.21875)"/>
<path d="M0 0 C3.96 0 7.92 0 12 0 C12 28.38 12 56.76 12 86 C2.65261708 74.31577135 -1.22863843 66.93259374 -0.78125 51.85546875 C-0.76628488 50.349503 -0.75491811 48.84349766 -0.74694824 47.33747864 C-0.71674687 43.4188936 -0.6384789 39.50277152 -0.54931641 35.58514404 C-0.46671926 31.56947127 -0.43078122 27.55339106 -0.390625 23.53710938 C-0.30543769 15.69029669 -0.16934073 7.84549647 0 0 Z " fill="#263238" transform="translate(466,74)"/>
<path d="M0 0 C3.96 0 7.92 0 12 0 C12.22763333 8.58983119 12.41033451 17.17724608 12.51812172 25.76930237 C12.56990431 29.76076955 12.6398996 33.75003457 12.75439453 37.74023438 C13.66516491 70.31192667 13.66516491 70.31192667 4.36083984 81.53515625 C2.92182891 83.03756105 1.4710494 84.5289506 0 86 C0 57.62 0 29.24 0 0 Z " fill="#263238" transform="translate(34,74)"/>
</svg>
