<?xml version="1.0" encoding="UTF-8"?>
<svg version="1.1" xmlns="http://www.w3.org/2000/svg" width="32" height="32" viewBox="0 0 512 512">
<path d="M0 0 C9.29664975 7.896358 17.85668567 16.67877056 26.48828125 25.28515625 C27.15255819 25.94660582 27.81683514 26.60805538 28.50124168 27.28954887 C32.00683178 30.78029223 35.50965086 34.2737867 39.01000977 37.76977539 C42.59828602 41.35254268 46.19577456 44.92591021 49.79543781 48.49723148 C52.59136696 51.27445263 55.38048367 54.05844134 58.16783714 56.84426689 C59.49087494 58.16430355 60.81638255 59.48187009 62.14452553 60.7967701 C74.63020436 73.16663781 85.27141645 84.53235396 85.5 103 C85.34011328 115.9068558 80.97792774 124.70581056 72.08908081 133.99752808 C70.09339501 135.94191799 68.06695068 137.84786996 66.02734375 139.74609375 C64.53565282 141.17360972 63.04546002 142.60269255 61.55664062 144.03320312 C59.23934565 146.25134402 56.91482055 148.45855132 54.5637207 150.64086914 C52.27359332 152.77354878 50.02377784 154.94255838 47.77734375 157.12109375 C47.06714584 157.76308212 46.35694794 158.4050705 45.62522888 159.06651306 C43.6784119 160.99087462 42.23078476 162.55177532 41 165 C41.02648907 168.57379566 41.9336273 171.61496651 43 175 C44.09095741 186.26476949 41.89980886 195.31837623 34.75390625 204.18359375 C28.0035166 211.1745318 19.67504711 214.45080189 10.125 215.375 C7.46937306 215.3535513 5.94145879 214.97255193 3.50657558 213.8309145 C0.06325963 212.3615528 -2.24003983 211.8160018 -6 212 C-12.01508079 215.04296631 -16.60600184 220.74914756 -21.20092773 225.5456543 C-22.68572332 227.03959545 -24.17386163 228.53022066 -25.66506958 230.01776123 C-29.70530305 234.0665077 -33.69777707 238.15959161 -37.68376803 242.26165366 C-41.87115293 246.55413145 -46.10242386 250.80287957 -50.3296051 255.05610657 C-58.34042958 263.12907373 -66.31355117 271.23819596 -74.27272135 279.36206132 C-85.92340881 291.25085267 -97.62595038 303.08842164 -109.33303165 314.92165089 C-110.19462609 315.79257789 -111.05622053 316.66350489 -111.94392389 317.56082362 C-113.66347273 319.29899573 -115.38311442 321.03707599 -117.10285145 322.77506191 C-122.1134947 327.84146094 -127.11205724 332.91939999 -132.10006893 338.00807989 C-135.21887606 341.18793677 -138.34377123 344.36176751 -141.46969986 347.53462219 C-142.90713768 348.99663831 -144.34182614 350.46136406 -145.77338982 351.92913246 C-156.21291889 362.63000997 -166.89023278 372.99250136 -180.375 379.8125 C-181.08849609 380.17939941 -181.80199219 380.54629883 -182.53710938 380.92431641 C-203.46117395 391.39098201 -224.73901868 392.52668354 -247.74023438 392.44604492 C-251.19957841 392.43448069 -254.65791275 392.454941 -258.11712456 392.48396206 C-261.47136309 392.50686746 -264.82537307 392.49985416 -268.1796875 392.49609375 C-269.40388397 392.50732773 -270.62808044 392.51856171 -271.88937378 392.53013611 C-284.63006634 392.42759366 -294.50045379 388.53924993 -304 380 C-312.99902027 370.08271236 -315.63367438 358.46957517 -315.4609375 345.39453125 C-315.46002106 344.2310466 -315.45910461 343.06756195 -315.4581604 341.86882019 C-315.452158 339.42251474 -315.43651455 336.97621546 -315.41162109 334.5300293 C-315.37526496 330.8393965 -315.37060174 327.14977725 -315.37109375 323.45898438 C-315.27358837 290.31148528 -310.0499251 260.14830907 -286.65440369 235.04896545 C-286.13463548 234.48917687 -285.61486727 233.92938828 -285.0793485 233.3526364 C-279.32023438 227.20054608 -273.32942144 221.28794623 -267.30972481 215.39239311 C-265.19509935 213.32135147 -263.08412062 211.24664991 -260.97396851 209.17105103 C-258.69563706 206.93004956 -256.41711465 204.68924666 -254.13755429 202.4494952 C-248.50819962 196.91783577 -242.89108676 191.37395618 -237.2809906 185.82276917 C-236.05358299 184.60825511 -236.05358299 184.60825511 -234.80137926 183.36920542 C-231.43587814 180.0385053 -228.07083432 176.70734375 -224.7061702 173.37579811 C-215.17951342 163.94359752 -205.64092493 154.52423687 -196.06518555 145.1418457 C-188.42860078 137.65930163 -180.81874914 130.15072536 -173.23946899 122.61012608 C-169.23523008 118.62828315 -165.21872013 114.6608899 -161.1694355 110.72482109 C-157.37004546 107.03105739 -153.60713656 103.30376127 -149.86936569 99.54768753 C-148.49278106 98.176827 -147.1032852 96.8187923 -145.70031929 95.47494316 C-138.05317639 88.70504542 -138.05317639 88.70504542 -134.88049126 79.56398201 C-135.64105473 76.49172906 -136.68270294 73.86775389 -138 71 C-138.74055308 61.66700223 -136.2059274 53.71835323 -131 46 C-125.55024042 39.65721259 -118.19762399 35.62712763 -110 34 C-104.95576183 33.6678373 -99.97293341 33.48558979 -95.125 35.0625 C-91.71101017 36.08669695 -90.35683455 36.00920393 -87 35 C-85.05699845 33.60957992 -85.05699845 33.60957992 -83.34643555 31.75292969 C-82.67190842 31.06841736 -81.99738129 30.38390503 -81.30241394 29.6786499 C-80.23039482 28.56154633 -80.23039482 28.56154633 -79.13671875 27.421875 C-78.3859053 26.65828674 -77.63509186 25.89469849 -76.86152649 25.10797119 C-74.46043108 22.66464143 -72.07284258 20.20870443 -69.6875 17.75 C-67.31211502 15.30637484 -64.93377388 12.86601522 -62.54560852 10.43487549 C-61.0608926 8.92310918 -59.58339037 7.40421234 -58.11442566 5.87713623 C-41.93714653 -10.61086194 -19.23724066 -13.39624 0 0 Z " fill="#1F243A" transform="translate(371,64)"/>
<path d="M0 0 C3.03642734 2.15088531 5.57200714 4.64029405 8.16186523 7.30371094 C8.89831772 8.03271606 9.6347702 8.76172119 10.39353943 9.51281738 C12.79934178 11.90322933 15.17913851 14.31775844 17.55859375 16.734375 C19.23598543 18.41467353 20.91464151 20.09371072 22.59449768 21.77154541 C26.10098579 25.28124123 29.59533161 28.80244945 33.08081055 32.33300781 C37.53967934 36.84860677 42.02246178 41.33950919 46.5138998 45.82268906 C49.97822055 49.28420729 53.43223532 52.75585813 56.88298225 56.23090363 C58.53222773 57.8903304 60.18401049 59.54723958 61.83840752 61.20153046 C64.15037049 63.51747715 66.44876753 65.84609558 68.74389648 68.17871094 C69.76238678 69.19212555 69.76238678 69.19212555 70.80145264 70.22601318 C76.57879557 76.1467596 80.58440626 81.97496751 80.5 90.5 C80.19935695 99.45708951 77.17722351 103.8827012 71 110 C69.86165853 111.13721163 68.72392149 112.2750285 67.58666992 113.41333008 C58.39111328 122.60888672 49.19555664 131.80444336 40 141 C36.56674494 139.51742883 34.32183725 137.57943036 31.67790222 134.95205688 C30.82112885 134.10525864 29.96435547 133.25846039 29.08161926 132.38600159 C27.68419746 130.9895768 27.68419746 130.9895768 26.25854492 129.56494141 C25.26166171 128.57568152 24.26437774 127.58682534 23.26672363 126.5983429 C20.56170596 123.91525081 17.863272 121.22563173 15.16665435 118.53410006 C13.48250116 116.85359051 11.79705728 115.17438652 10.11116982 113.49561691 C4.23253624 107.64146402 -1.64036703 101.781625 -7.50854492 95.91699219 C-12.98406608 90.44511274 -18.47259895 84.98652425 -23.96716577 79.53377593 C-28.68177217 74.85380258 -33.38677033 70.16431394 -38.08444136 65.46734178 C-40.89148476 62.66109311 -43.70240309 59.85900436 -46.5232029 57.06657791 C-49.17310289 54.44274132 -51.81090349 51.80732911 -54.43973541 49.16238976 C-55.40815517 48.19214655 -56.38089121 47.22619028 -57.35812187 46.26482201 C-58.68782732 44.9554006 -60.00084054 43.62909154 -61.31282043 42.3019104 C-62.42362331 41.19412452 -62.42362331 41.19412452 -63.55686665 40.06395912 C-65 38 -65 38 -64.85227489 35.85759544 C-63.57435271 33.07227061 -61.63507842 31.61956806 -59.3125 29.625 C-54.90810943 25.7748135 -50.74023938 21.75661604 -46.66015625 17.5625 C-46.1871962 17.07816498 -45.71423615 16.59382996 -45.22694397 16.09481812 C-42.33789327 13.13614101 -42.33789327 13.13614101 -39.47402954 10.15313721 C-27.16311449 -2.76938696 -16.76731224 -7.9153873 0 0 Z " fill="#DB5790" transform="translate(360,76)"/>
<path d="M0 0 C4.00517396 1.60373148 6.6771098 4.42113986 9.640625 7.4453125 C10.16767029 7.97518768 10.69471558 8.50506287 11.23773193 9.05099487 C12.91325675 10.73767825 14.58167722 12.43119564 16.25 14.125 C17.38755851 15.27259388 18.52557436 16.41973461 19.6640625 17.56640625 C22.44803465 20.37238137 25.2256576 23.18450464 28 26 C26.36142705 30.17551927 23.30403508 32.96863295 20.17880249 36.06170654 C19.57681144 36.66540644 18.9748204 37.26910634 18.3545872 37.89110017 C16.33405216 39.91493226 14.30644654 41.93152825 12.27880859 43.94824219 C10.82982663 45.39666009 9.38128477 46.84551837 7.93315125 48.29478455 C3.99777886 52.23073162 0.0562629 56.16047437 -3.88636446 60.08915234 C-8.0045823 64.19488224 -12.11715104 68.30626258 -16.23031616 72.41705322 C-24.02130442 80.20182102 -31.81737769 87.98147579 -39.61527956 95.75931764 C-48.49212913 104.61382584 -57.363312 113.47400208 -66.23401761 122.33466482 C-84.48303572 140.56276811 -102.73917748 158.78372286 -121 177 C-121.99 176.67 -122.98 176.34 -124 176 C-124 175.34 -124 174.68 -124 174 C-124.66 174 -125.32 174 -126 174 C-127.35386936 172.34997172 -128.68678142 170.6825613 -130 169 C-130.66 168.67 -131.32 168.34 -132 168 C-132 167.34 -132 166.68 -132 166 C-132.66 166 -133.32 166 -134 166 C-135.515625 164.42578125 -135.515625 164.42578125 -137.25 162.3125 C-139.50075728 159.64650867 -141.70049545 157.28989909 -144.4375 155.125 C-145.283125 154.42375 -146.12875 153.7225 -147 153 C-147 152.34 -147 151.68 -147 151 C-147.66 151 -148.32 151 -149 151 C-148.46812029 146.9070805 -146.390584 145.01812094 -143.5297699 142.16227722 C-143.06086793 141.69010641 -142.59196595 141.2179356 -142.10885483 140.73145658 C-140.5346204 139.14993528 -138.94988889 137.57937371 -137.36499023 136.00854492 C-136.23434277 134.87710662 -135.10434853 133.74501523 -133.97496033 132.61231995 C-130.90286049 129.53507987 -127.821495 126.46727243 -124.73828387 123.40117049 C-121.50982662 120.1877512 -118.28947731 116.96622611 -115.06813049 113.74568176 C-109.65158036 108.33282673 -104.22942292 102.92564227 -98.8034668 97.5222168 C-91.85479086 90.60233712 -84.91532835 83.67329519 -77.97880459 76.74123669 C-72.00285907 70.76928515 -66.02266336 64.80159477 -60.04179502 58.83457398 C-58.12678814 56.923651 -56.21235666 55.01215299 -54.29800224 53.1005764 C-51.27748154 50.08498353 -48.25430927 47.07207247 -45.22913551 44.06114769 C-44.12382692 42.96032681 -43.01932742 41.8586928 -41.91573334 40.75615311 C-36.63340428 35.47999767 -31.33893278 30.26395821 -25.64811039 25.42393875 C-22.95943374 23.10096883 -20.46662181 20.5909325 -17.96875 18.06640625 C-17.4473645 17.5436058 -16.925979 17.02080536 -16.38879395 16.48216248 C-14.75678922 14.84465002 -13.12833426 13.20366151 -11.5 11.5625 C-10.38044368 10.4379167 -9.26065371 9.31356595 -8.140625 8.18945312 C-5.42438466 5.46230656 -2.71131708 2.73204093 0 0 Z " fill="#F4E581" transform="translate(247,160)"/>
<path d="M0 0 C3.01464409 1.6643831 5.27578752 4.1096195 7.65275288 6.55652905 C8.20199421 7.11001522 8.75123554 7.6635014 9.31712055 8.23375988 C11.06638252 9.99978838 12.80491431 11.77596972 14.54337788 13.5526228 C15.72888288 14.75317721 16.91507311 15.9530554 18.10197163 17.15223217 C21.0071108 20.09041374 23.90267125 23.03774354 26.79337788 25.9901228 C22.9276231 30.60751896 18.92539428 35.00805617 14.66993427 39.26746655 C14.083682 39.85810107 13.49742973 40.4487356 12.89341223 41.05726814 C10.94753381 43.01639747 8.99818336 44.97203229 7.04874897 46.9276228 C5.64532983 48.33895279 4.24209053 49.75046163 2.83901691 51.16213512 C-1.74797324 55.77519838 -6.34028982 60.38293946 -10.93318462 64.9901228 C-12.51618321 66.57848425 -14.09917446 68.16685301 -15.68215847 69.755229 C-22.26151599 76.35617995 -28.84229878 82.95570446 -35.42681599 89.5515089 C-44.86136798 99.00234353 -54.2872979 108.46159602 -63.70155489 117.93264866 C-70.32651257 124.59621275 -76.96093927 131.25025294 -83.60257757 137.89719105 C-87.56930998 141.86758523 -91.53170773 145.8420955 -95.4840765 149.82679272 C-99.19475869 153.56739699 -102.91696198 157.2961274 -106.64854527 161.01587772 C-108.01871207 162.38582257 -109.38457312 163.76008885 -110.74586582 165.13885212 C-112.5983538 167.0138225 -114.46542616 168.87290578 -116.33714581 170.72864819 C-116.87780733 171.2831918 -117.41846885 171.8377354 -117.97551405 172.40908337 C-119.49790668 173.89943981 -119.49790668 173.89943981 -122.20662212 175.9901228 C-126.49689455 175.93096073 -129.00649707 172.65785638 -131.88240337 169.78309155 C-132.67652882 169.00038639 -132.67652882 169.00038639 -133.4866972 168.20186901 C-134.60072606 167.09862668 -135.71082377 165.99140245 -136.81721783 164.88050365 C-138.5167824 163.17996387 -140.2365671 161.50187935 -141.95857525 159.82410717 C-143.03864927 158.74923799 -144.11746999 157.67310765 -145.19490337 156.59559155 C-145.71248714 156.09440304 -146.23007092 155.59321453 -146.76333904 155.07683849 C-148.18049908 153.63148022 -148.18049908 153.63148022 -150.20662212 150.9901228 C-149.69928792 146.45905693 -146.62668558 143.98666836 -143.53259563 140.92168713 C-142.93428128 140.31728166 -142.33596692 139.7128762 -141.71952182 139.09015542 C-139.70761042 137.06156052 -137.68509538 135.04388254 -135.66243267 133.02601147 C-134.21990709 131.57614885 -132.77800704 130.12566364 -131.33668804 128.67460155 C-127.4161592 124.73181363 -123.48599589 120.79876482 -119.55337787 116.86803889 C-116.27518135 113.58996184 -113.00133265 110.30755935 -109.72737056 107.02525407 C-102.00721506 99.28584993 -94.27889392 91.55466543 -86.54573345 83.82825756 C-78.55658974 75.84576135 -70.58233337 67.84860834 -62.61506909 59.84427947 C-55.78237989 52.98095473 -48.94012429 46.1272708 -42.09015018 39.28119737 C-37.99530534 35.18842579 -33.90437412 31.09192009 -29.82277775 26.98593235 C-25.98678297 23.12777373 -22.13905048 19.28172964 -18.28177166 15.44485378 C-16.8648588 14.03136896 -15.45223922 12.61356599 -14.04417133 11.19126987 C-12.12792774 9.25699886 -10.19708957 7.33862345 -8.26159954 5.42364025 C-7.70196363 4.85148649 -7.14232771 4.27933273 -6.56573313 3.68984097 C-2.77735609 -0.0124319 -2.77735609 -0.0124319 0 0 Z " fill="#EDF1F4" transform="translate(287.20662212371826,199.00987720489502)"/>
<path d="M0 0 C1.11268262 0.94659708 2.22434643 1.89439181 3.33558655 2.84268188 C4.26433893 3.63419112 4.26433893 3.63419112 5.21185398 4.44169044 C7.59526944 6.51875745 9.83076672 8.71854951 12.05859375 10.9609375 C12.93837891 11.84394531 13.81816406 12.72695312 14.72460938 13.63671875 C15.61986328 14.54035156 16.51511719 15.44398438 17.4375 16.375 C18.35982422 17.30183594 19.28214844 18.22867188 20.23242188 19.18359375 C22.49058625 21.45345846 24.74636942 23.72563538 27 26 C25.66826484 28.95667717 24.21657624 31.03032898 21.92134094 33.31243896 C21.28923203 33.94585205 20.65712311 34.57926514 20.00585938 35.23187256 C19.31339111 35.91557922 18.62092285 36.59928589 17.9074707 37.30371094 C17.17715134 38.03271606 16.44683197 38.76172119 15.69438171 39.51281738 C13.2760743 41.92462832 10.85087212 44.32938665 8.42578125 46.734375 C6.74096196 48.41292168 5.05665826 50.09198603 3.37284851 51.77154541 C-1.06722385 56.19830319 -5.51281778 60.61947078 -9.96002197 65.0390625 C-17.06149853 72.09747284 -24.15638804 79.16248721 -31.24790382 86.23090363 C-33.71980953 88.69263822 -36.19513171 91.15089809 -38.67082214 93.60882568 C-40.20083283 95.13200153 -41.73073064 96.65529077 -43.26049805 98.17871094 C-44.28401871 99.19212555 -44.28401871 99.19212555 -45.32821655 100.22601318 C-49.19450186 104.08323027 -52.86988354 108.04760806 -56.42384052 112.19499588 C-58.96925439 115.10998169 -61.69206521 117.837277 -64.4375 120.5625 C-64.95892578 121.08779297 -65.48035156 121.61308594 -66.01757812 122.15429688 C-68.78069196 124.91067962 -71.60369841 127.54072359 -74.57446289 130.07226562 C-79.67328536 134.51794385 -84.4196578 139.29463729 -89.1875 144.08984375 C-90.13991612 145.04412993 -91.09255695 145.99819188 -92.04541016 146.95204163 C-94.52666925 149.4370797 -97.00490791 151.92510796 -99.48248291 154.41381836 C-102.02162485 156.96327496 -104.56367646 159.50982688 -107.10546875 162.05664062 C-112.07312882 167.03495631 -117.03759686 172.01644371 -122 177 C-125.32302186 175.43622501 -127.56184007 173.78646849 -130 171 C-130 170.34 -130 169.68 -130 169 C-130.66 169 -131.32 169 -132 169 C-133.33895632 167.33784732 -134.67130142 165.67036393 -136 164 C-136.763125 163.401875 -137.52625 162.80375 -138.3125 162.1875 C-141.96304642 159.21612501 -145.35106745 155.90851143 -148 152 C-148 147.46761487 -147.17576308 146.70654528 -144.12637901 143.61005378 C-143.55051867 143.0458448 -142.97465832 142.48163581 -142.38134766 141.90032959 C-141.77698191 141.29254614 -141.17261616 140.68476269 -140.54993629 140.05856156 C-138.51404355 138.01605871 -136.46414169 135.98821713 -134.4140625 133.95996094 C-132.95509414 132.50212037 -131.49700503 131.04339942 -130.03973389 129.5838623 C-126.07356262 125.61654032 -122.0951524 121.66169772 -118.11449432 117.70891857 C-113.95934574 113.57872389 -109.81547304 109.4372482 -105.67041016 105.29693604 C-97.81604802 97.45502134 -89.95154228 89.62336128 -82.08337593 81.79529977 C-73.12768145 72.8842679 -64.18330152 63.96191626 -55.23987198 55.03857756 C-36.83917738 36.67972734 -18.42426105 18.33519752 0 0 Z " fill="#F4D86D" transform="translate(325,237)"/>
<path d="M0 0 C1.38251953 -0.05607422 1.38251953 -0.05607422 2.79296875 -0.11328125 C11.89814068 1.17063044 17.96418248 9.04522231 24.11621094 15.24389648 C25.24473879 16.36999375 26.37391177 17.49544481 27.50367737 18.62030029 C30.55782594 21.66507455 33.6025262 24.71913566 36.64530849 27.77526355 C39.83550284 30.97680512 43.03343835 34.17059797 46.23028564 37.36549377 C51.59510704 42.72943343 56.95392797 48.09931022 62.30908203 53.47290039 C68.49724557 59.68224585 74.69420805 65.88269973 80.89608741 72.07834381 C86.86861093 78.04517038 92.83544377 84.01765506 98.79950714 89.99293709 C101.33516874 92.53323861 103.87269904 95.07165147 106.41173553 97.60857964 C109.40081725 100.59577598 112.38484638 103.58793077 115.36506462 106.58396912 C116.45861372 107.68175555 117.55385638 108.77785798 118.65091896 109.87213326 C120.14962601 111.3676099 121.64202193 112.86911793 123.13299561 114.37229919 C124.38728426 115.62966715 124.38728426 115.62966715 125.66691208 116.91243649 C130.54032519 122.36385652 131.35767023 126.26130733 131.1640625 133.43359375 C130.5238848 138.67593783 128.01926905 141.24939393 124.1875 144.625 C120.73574905 147.07755989 118.77244349 147.51572551 114.5625 147.625 C113.62921875 147.66238281 112.6959375 147.69976562 111.734375 147.73828125 C105.8551027 146.88154237 101.73487584 142.48579101 97.66265869 138.4233551 C96.94042213 137.70685686 96.94042213 137.70685686 96.20359492 136.9758839 C94.60525599 135.38779319 93.01407998 133.79272251 91.42285156 132.19750977 C90.2729219 131.05193095 89.12257619 129.90676963 87.97184753 128.76199341 C84.85788291 125.66138591 81.75031957 122.55443806 78.64429569 119.44587827 C76.04898255 116.84949376 73.45069538 114.25609553 70.85245395 111.66264194 C64.72431551 105.54558606 58.60150556 99.42323236 52.48193359 93.29760742 C46.16946304 86.97908933 39.84785356 80.66982134 33.52173066 74.36497456 C28.08691054 68.9477616 22.65790579 63.52476868 17.23351073 58.09711689 C13.99518143 54.85697411 10.75466314 51.61909973 7.50849152 48.38681221 C4.45825766 45.34913855 1.41534529 42.30431724 -1.62207603 39.25383377 C-2.73773453 38.1358065 -3.85595772 37.02033175 -4.97691536 35.90761757 C-6.50684909 34.3881266 -8.02724028 32.85967913 -9.54559326 31.32862854 C-10.398755 30.47563455 -11.25191673 29.62264055 -12.13093185 28.74379826 C-16.08957523 24.06384503 -16.63645276 19.69301393 -16.50390625 13.74609375 C-15.86617515 8.84107551 -13.1415529 6.15297518 -9.5625 3 C-6.13027208 0.56131174 -4.18446543 0.10966185 0 0 Z " fill="#738994" transform="translate(266.1875,114.6875)"/>
<path d="M0 0 C2.89673981 1.30998827 4.94811807 2.70486065 7.17626953 4.96508789 C7.77013458 5.5623317 8.36399963 6.1595755 8.9758606 6.7749176 C9.60515472 7.41767136 10.23444885 8.06042511 10.8828125 8.72265625 C11.53829071 9.38333603 12.19376892 10.04401581 12.86911011 10.72471619 C14.95921627 12.83261426 17.04250562 14.94708366 19.125 17.0625 C21.2154984 19.1805997 23.30743041 21.29723182 25.40231323 23.41099548 C26.70498383 24.72594066 28.00497219 26.04354942 29.30203247 27.36402893 C29.8895932 27.95812057 30.47715393 28.55221222 31.08251953 29.16430664 C31.59896027 29.6890004 32.115401 30.21369415 32.64749146 30.75428772 C34.00001564 32.1154243 34.00001564 32.1154243 36 33 C36 33.66 36 34.32 36 35 C36.52946228 35.2041452 37.05892456 35.40829041 37.60443115 35.61862183 C41.01752004 37.58674163 43.58128457 40.32040488 46.32910156 43.10205078 C46.95391418 43.72657135 47.57872681 44.35109192 48.22247314 44.99453735 C50.28330069 47.0567565 52.33695653 49.1259659 54.390625 51.1953125 C55.81936725 52.62778547 57.24855215 54.05981707 58.67816162 55.49142456 C62.43742017 59.25831484 66.19063357 63.03117293 69.94262695 66.80529785 C73.77322817 70.65636731 77.60950595 74.50177271 81.4453125 78.34765625 C88.96911378 85.89289934 96.48654202 93.44445811 104 101 C91.36401701 111.35980423 74.27473664 116.21942063 58.09765625 116.09765625 C57.3750914 116.0962413 56.65252655 116.09482635 55.9080658 116.09336853 C53.62616635 116.08782225 51.34436921 116.0752802 49.0625 116.0625 C47.50455872 116.05747804 45.94661588 116.05291636 44.38867188 116.04882812 C40.59240919 116.0378705 36.79622187 116.02064372 33 116 C32.94739014 115.413396 32.89478027 114.82679199 32.84057617 114.22241211 C31.58936375 101.54267999 26.43719617 89.36777423 16.95703125 80.58984375 C7.76766908 73.12463337 -2.53294896 70.2554342 -14 68 C-14.45639982 43.88102506 -14.59369702 20.55947207 0 0 Z " fill="#EDC69C" transform="translate(86,323)"/>
<path d="M0 0 C22.07941735 18.06497783 22.07941735 18.06497783 23.359375 29.09765625 C23.63828356 35.84569402 23.18923043 41.52639234 19 47 C17.3429919 48.67732202 15.67522011 50.34103106 14 52 C12.86165853 53.13721163 11.72392149 54.2750285 10.58666992 55.41333008 C-3.20666504 69.20666504 -3.20666504 69.20666504 -17 83 C-20.81249879 81.2241334 -23.23349496 78.99634812 -26.203125 75.9921875 C-26.6857782 75.50670441 -27.1684314 75.02122131 -27.66571045 74.52102661 C-29.19858562 72.97700134 -30.72434004 71.42615176 -32.25 69.875 C-33.29120361 68.82375991 -34.33286541 67.77297343 -35.375 66.72265625 C-37.92199464 64.15366996 -40.46265177 61.57851839 -43 59 C-38.89937348 54.09197601 -34.62518762 49.54606943 -30.02734375 45.10546875 C-28.70187394 43.80725296 -27.37702291 42.50840515 -26.05273438 41.20898438 C-23.99606215 39.19546083 -21.93599208 37.18604466 -19.86499023 35.18725586 C-6.54761784 22.48318985 -6.54761784 22.48318985 -0.6875 5.375 C-0.54699219 4.35148438 -0.40648437 3.32796875 -0.26171875 2.2734375 C-0.17535156 1.52320313 -0.08898437 0.77296875 0 0 Z " fill="#D7377B" transform="translate(417,134)"/>
<path d="M0 0 C1.17825358 0.90172468 2.34231577 1.82201502 3.5 2.75 C4.47453125 3.51570312 4.47453125 3.51570312 5.46875 4.296875 C7 6 7 6 7 10 C5.19302867 12.19175406 3.40148873 14.1204028 1.38134766 16.09967041 C0.77698191 16.70745386 0.17261616 17.31523731 -0.45006371 17.94143844 C-2.48595645 19.98394129 -4.53585831 22.01178287 -6.5859375 24.04003906 C-8.04490586 25.49787963 -9.50299497 26.95660058 -10.96026611 28.4161377 C-14.92643738 32.38345968 -18.9048476 36.33830228 -22.88550568 40.29108143 C-27.04065426 44.42127611 -31.18452696 48.5627518 -35.32958984 52.70306396 C-43.18395198 60.54497866 -51.04845772 68.37663872 -58.91662407 76.20470023 C-67.87231855 85.1157321 -76.81669848 94.03808374 -85.76012802 102.96142244 C-104.16082262 121.32027266 -122.57573895 139.66480248 -141 158 C-144.49891018 156.00144083 -146.77460365 154.39665758 -149 151 C-147.36142705 146.82448073 -144.30403508 144.03136705 -141.17880249 140.93829346 C-140.27581592 140.03274361 -140.27581592 140.03274361 -139.3545872 139.10889983 C-137.33405216 137.08506774 -135.30644654 135.06847175 -133.27880859 133.05175781 C-131.82982663 131.60333991 -130.38128477 130.15448163 -128.93315125 128.70521545 C-124.99777886 124.76926838 -121.0562629 120.83952563 -117.11363554 116.91084766 C-112.9954177 112.80511776 -108.88284896 108.69373742 -104.76968384 104.58294678 C-96.97869558 96.79817898 -89.18262231 89.01852421 -81.38472044 81.24068236 C-72.50787087 72.38617416 -63.636688 63.52599792 -54.76598239 54.66533518 C-36.51696428 36.43723189 -18.26082252 18.21627714 0 0 Z " fill="#F4E581" transform="translate(325,237)"/>
<path d="M0 0 C7.15801225 5.82628904 13.52591766 12.4382985 20 19 C7.67313513 29.51409062 -9.95051134 34.21772519 -25.90234375 34.09765625 C-26.6249086 34.0962413 -27.34747345 34.09482635 -28.0919342 34.09336853 C-30.37383365 34.08782225 -32.65563079 34.0752802 -34.9375 34.0625 C-36.49544128 34.05747804 -38.05338412 34.05291636 -39.61132812 34.04882812 C-43.40759081 34.0378705 -47.20377813 34.02064372 -51 34 C-51.09087891 33.14728516 -51.09087891 33.14728516 -51.18359375 32.27734375 C-51.70176573 27.50218963 -52.29243859 22.7507695 -53 18 C-52.43192627 17.93006836 -51.86385254 17.86013672 -51.27856445 17.78808594 C-23.23548192 14.61899118 -23.23548192 14.61899118 0 0 Z " fill="#E9B77E" transform="translate(170,405)"/>
<path d="M0 0 C5.14661685 4.31329158 10.00023533 8.81749461 14.75 13.5625 C15.40871094 14.20896484 16.06742187 14.85542969 16.74609375 15.52148438 C24.60508569 23.35656458 24.60508569 23.35656458 25.43359375 28.90234375 C25.44155637 35.08929769 25.39977589 39.24348553 21 44 C16.78198698 47.71586862 14.34370449 49.16730822 8.75 49.3125 C7.81671875 49.34988281 6.8834375 49.38726562 5.921875 49.42578125 C0.11994532 48.58031289 -3.95344223 44.29744433 -7.9609375 40.26953125 C-8.84394531 39.38458984 -9.72695313 38.49964844 -10.63671875 37.58789062 C-11.54035156 36.67201172 -12.44398438 35.75613281 -13.375 34.8125 C-14.30183594 33.88501953 -15.22867187 32.95753906 -16.18359375 32.00195312 C-23 25.14037187 -23 25.14037187 -23 24 C-22.35933594 23.84144531 -21.71867187 23.68289062 -21.05859375 23.51953125 C-13.03092906 21.35409562 -7.48667715 18.93174121 -3.125 11.625 C-1.12099177 7.70240029 -0.27948756 4.37863843 0 0 Z " fill="#60777F" transform="translate(372,213)"/>
<path d="M0 0 C9.57304524 0.83243872 18.03635028 4.21380261 24.3671875 11.59375 C29.53542659 18.32163521 31.45172605 24.56778049 31 33 C22.823893 33.69947683 16.78996115 32.7888312 10 28 C5.29800982 23.76732334 1.71343385 19.1482038 0 13 C-0.2244647 8.65354725 -0.17650978 4.34737055 0 0 Z " fill="#5F767E" transform="translate(72,407)"/>
<path d="M0 0 C10.01365345 0.87075247 18.20123977 4.56140507 24.875 12.125 C26 14 26 14 26 17 C19.2212575 16.63863321 13.12053382 16.07312517 7 13 C6.32453125 12.66097656 5.6490625 12.32195312 4.953125 11.97265625 C2.95296955 10.78456391 1.48756083 9.79235158 0 8 C-0.59897701 5.09685015 -0.35559107 2.99712474 0 0 Z " fill="#718792" transform="translate(72,407)"/>
</svg>
